<?xml version="1.0" encoding="UTF-8"?>
<svg id="Layer_2" data-name="Layer 2" xmlns="http://www.w3.org/2000/svg" viewBox="0 0 1696.96 1057.52">
  <defs>
    <style>
      .cls-1 {
        fill: #fff;
      }
    </style>
  </defs>
  <g id="Layer_1-2" data-name="Layer 1">
    <g>
      <g id="_6754b9ff" data-name="#6754b9ff">
        <path class="cls-1" d="M842.04,1.39c13.47-3.96,29.23,.69,37.69,12.1,10.52,13.38,8.63,34.66-4.32,45.82-15.11,14.02-43.51,10.49-52.7-8.66-9.62-17.76-1.43-44.28,19.34-49.26Z"/>
        <path class="cls-1" d="M735.2,29.51c10.59-3.04,22.89-.99,30.38,7.56,15.6,12.48,13.96,40.2-3.65,50.16-18.58,15.39-50.05-2.29-48.5-25.68-1.51-14.26,9.42-26.67,21.77-32.05Z"/>
        <path class="cls-1" d="M950.61,29.54c20.5-7.33,43.77,12.4,40.92,33.64,.56,12.32-9.01,22.02-19.29,27.13-19.48,9.95-45.87-8.85-43.28-30.48-.82-13.61,10-25.02,21.64-30.29Z"/>
        <path class="cls-1" d="M636.52,57.33c13.71-2.91,28.79,4.09,33.8,17.53,7.43,16.34-3.32,37.78-21.24,40.69-15.23,3.67-32.13-6.26-35.5-21.69-4.32-15.67,6.4-34.38,22.94-36.53Z"/>
        <path class="cls-1" d="M1055.77,57.29c20.45-5.82,41.52,16.08,36.4,36.24-3.24,13.43-16.82,22.84-30.42,22.44-15.31-.31-31.22-13.47-29.3-29.81-1.55-14.17,10.67-25.35,23.31-28.87Z"/>
        <path class="cls-1" d="M801.48,74.94c32.59,10.87,69.63,12.61,101.99,.03-5.9,51.27-11.36,102.71-19.94,153.62-19.09-8.71-43.06-8.53-62.2-.03-8.27-50.95-13.91-102.33-19.85-153.62Z"/>
        <path class="cls-1" d="M696.4,99.1c30.76,10.44,64.96,11.56,95.81,.9-2.75,33.87-7.56,67.54-11.62,101.28-2.3,14.17-2.8,28.79-7.51,42.47-17.72-7.78-39.21-7.71-56.91,.1-3.4-10.11-4.26-20.8-5.75-31.31-4.55-37.83-9.77-75.6-14.01-113.45Z"/>
        <path class="cls-1" d="M911.92,99.12c30.76,10.39,64.96,11.58,95.81,.87-2.84,34.96-7.79,69.71-12.05,104.52-2.14,13.12-2.56,26.65-7.14,39.25-17.71-7.83-39.2-7.66-56.89,.08-3.34-10.13-4.23-20.82-5.72-31.32-4.57-37.82-9.73-75.57-14.01-113.4Z"/>
        <path class="cls-1" d="M597.34,123.65c29.2,9.49,61.72,10.97,90.68-.26-5.2,45.73-11.43,91.32-17.05,136.98-17.53-8.35-39.1-8.3-56.64-.02-5.57-45.58-11.87-91.07-16.98-136.7Z"/>
        <path class="cls-1" d="M1017.03,123.67c29.2,9.47,61.71,10.93,90.68-.25-5.15,45.71-11.44,91.29-17,136.96-17.53-8.37-39.16-8.34-56.69-.02-5.54-45.58-11.84-91.07-16.98-136.7Z"/>
        <path class="cls-1" d="M815.51,246.42c24.1-4.36,49.31-3.16,73.58-.54-5.26,88.23-11.87,176.44-19.96,264.47-11.07,.08-22.13,.05-33.18,.05-8.48-87.83-14.22-175.95-20.44-263.98Z"/>
        <path class="cls-1" d="M710.65,258.05c22.72-.07,45.45-.07,68.17,0-3.65,83.77-11.77,167.33-17.59,250.97-10.97,1.94-22.25,1.92-33.16-.23-5.67-83.59-13.7-167.05-17.41-250.74Z"/>
        <path class="cls-1" d="M926.19,258.05c22.72-.07,45.43-.05,68.15-.02-3.17,80.45-11.69,160.61-16.51,240.96-.79,3.55,.84,9.62-4.08,10.44-9.95,1.86-20.24,1.13-30.14-.67-5.74-83.56-13.7-167.03-17.43-250.71Z"/>
        <path class="cls-1" d="M608.32,275.05c22.49,.56,45.18-1.46,67.54,1.55-7.04,77.82-11.74,155.84-17.46,233.76-10.54,.08-21.08,.08-31.6-.02-6.25-78.41-9.59-157.14-18.48-235.28Z"/>
        <path class="cls-1" d="M1028.03,275.05c22.51,.74,45.31-1.83,67.63,1.83-7.27,77.7-11.74,155.66-17.56,233.49-10.52,.07-21.06,.08-31.58-.05-6.25-78.4-9.55-157.14-18.48-235.27Z"/>
        <path class="cls-1" d="M385.47,526.17c16.56-1.86,33.26-1.02,49.88-1.22,276.23-.38,552.45-.38,828.68,0,14.52,.15,29.1-.58,43.54,1.23-307.27,8.58-614.81,8.48-922.1-.02Z"/>
        <path class="cls-1" d="M160.64,552.18c10.37-1.59,20.91-.66,31.37-.89,436.81-.81,873.61-.81,1310.42,.02,10.29,.21,20.67-.71,30.89,.84-7.5,1.2-15.08,1.33-22.61,1.69-209.8,9.37-419.83,11.44-629.81,12.48-227.49-.33-455.06-2.33-682.39-11.79-12.63-.77-25.34-.61-37.88-2.35Z"/>
        <path class="cls-1" d="M175.5,918.51c181.34-7.58,362.82-11.28,544.31-11.95,137.55-1.71,275.11,.25,412.66,1.33,125.55,2.24,251.13,4.77,376.59,10.41,8.17,.44,16.44,.26,24.47,2.17-11.97,1.23-24.02,.41-36.02,.66-433.53,.82-867.03,.77-1300.56-.18-12.1-.23-24.27,.59-36.34-.71,4.88-1.12,9.9-1.51,14.9-1.73Z"/>
        <path class="cls-1" d="M412.22,945.36c141.94-4.69,283.97-5.34,425.96-5.97,141.43,.48,282.88,1.17,424.25,5.36,15.14,.77,30.37,.33,45.43,2.29-307.55,.48-615.09,.43-922.64,.02,8.94-1.3,17.99-1.38,27-1.69Z"/>
      </g>
      <g id="_000000ff" data-name="#000000ff">
        <path class="cls-1" d="M441.4,626.35c11.9-1.68,23.66-4.6,35.7-5.21,14.81,53.54,29.15,107.25,46.09,160.19,2.6,7.69,4.34,16.29,10.33,22.23,5.54,5.33,13.6,5.97,20.78,7.37-.67,5.56-1.46,11.11-2.27,16.67-28.9-1.74-57.88-.72-86.7,1.59,.02-5.8,.56-11.58,1.04-17.35,7.6-1.15,15.78-.74,22.81-4.26,5.41-3.32,3.72-10.59,2.83-15.75-2.96-11.71-6.82-23.17-10.14-34.77-21.18-.16-42.45-.97-63.5,1.97-3.88,14.57-12.68,28.43-12.25,43.75,5.38,12.82,22.89,6.41,33.69,8.17-.43,5.89-1.15,11.74-1.86,17.61-27.01-1.96-54.14-2.5-81.19-.97,.82-5.69,1.64-11.38,2.47-17.07,10.44-1.63,18.05-9.83,21.31-19.53,20.45-54.82,40.58-109.77,60.88-164.65m8.75,38.74c-8.34,24.48-16.77,48.95-25.12,73.43,17.26,.03,34.56,.23,51.79-1.23-7.55-26.09-14.39-52.4-22.44-78.35-2.1,1.5-3.54,3.65-4.23,6.15Z"/>
        <path class="cls-1" d="M4.29,627.06c-.28-2.83,1.59-6.61,4.97-5.82,13.76,1.38,27.44,4.01,41.35,3.21,37.96-.81,76.16,2.37,113.84-3.54,5.06,19.94,2.78,41.5,6.15,61.99-6.63,.53-13.25,1.05-19.88,1.56-2.61-11.77-2.29-25.55-10.67-35-10.31-7.46-24.09-5.56-36.12-7.02-3.07,48.54-4.19,97.19-4.41,145.81,.05,7.19,.94,16.62,8.62,19.76,8.78,3.17,18.3,.51,27.38,.87-.69,6.35-1.78,12.66-2.8,18.99-32.56-1.12-65.16-1.91-97.68,.38,.84-5.56,1.69-11.11,2.53-16.66,8.43-1.27,17.86-1.1,25.02-6.33,6.46-5.94,5.77-15.64,6.58-23.64,.03-46.38,0-92.78,0-139.16-12.73,1.22-26.8-.61-38.21,6.13-9.52,8.48-8.75,22.74-11.13,34.31-6.61,.53-13.22,1.05-19.83,1.58,2.07-19.09,3.47-38.24,4.29-57.42Z"/>
        <path class="cls-1" d="M194.92,623.82c49.01,1.13,98.14,1.97,147.02-2.47-3.16,18.83-6.46,37.69-7.37,56.81-7.05,.53-14.09,1.05-21.14,1.58,.18-8.75,2.01-17.99-1.45-26.31-3.34-6.43-11.53-7-17.91-7.68-13.01-.66-26.21-1.58-39.15,.15-4.36,.53-4.87,5.54-5.2,9.01-.99,19.22-1.74,38.46-2.66,57.68,23.59,.81,47.19,.15,70.65-2.68-.74,8.27-2.75,16.33-4.31,24.47-22.31-.35-44.74-2.14-66.94,.94-.31,18.74-.79,37.49-.99,56.22,.25,5.46,.31,13.33,6.84,15.08,11.53,2.55,23.48,1.04,35.19,.81,9.7-.76,20.98-1.4,27.85-9.26,6.07-7.91,7.07-18.23,8.88-27.7,6.84-.56,13.66-1.81,20.55-1.53-2.7,19.93-6.36,39.9-9.26,59.87-48.85-.58-97.94-5.01-146.6,1,.62-5.74,1.25-11.48,1.87-17.2,6.41-1.36,13.45-2.42,18.41-7.12,5.15-5.43,5.49-13.42,5.64-20.47,.05-42.78,.23-85.56,.25-128.35-.41-4.72,.2-10.92-4.21-13.96-5.72-2.56-12.2-.89-18.23-1,.2-6.02,1.3-11.95,2.24-17.87Z"/>
        <path class="cls-1" d="M1162.86,624.11c26.88,.77,53.81,.94,80.6-1.89-.53,5.66-1.05,11.3-1.56,16.95-8.71,1.18-21.13,3.4-21.52,14.5-2.47,45.35-4.06,90.78-4.42,136.19,.53,6.13-.56,14.3,5.15,18.35,7.63,3.37,16.24,.74,24.27,.84-.77,6.22-1.84,12.38-2.88,18.55-27.82-.61-55.85-2.35-83.43,2.52,.64-5.62,1.27-11.25,1.87-16.87,10.75-1.84,23.84-7.14,23.89-20.06,1.13-44.9,.36-89.87,.79-134.81-.41-5.26,.48-12.28-4.49-15.67-6.46-2.68-13.68-.81-20.45-1.12,.46-5.85,1.36-11.67,2.19-17.48Z"/>
        <path class="cls-1" d="M573.79,623.21c21.26,1.61,42.58,1.81,63.86,.28,15.13,49.23,30.42,98.45,48.13,146.81,18.58-48.04,34.17-97.3,50.49-146.19,20.88,1.68,41.78-.08,62.63-1.15-.61,5.31-1.28,10.61-1.97,15.92-10.23,1.05-25.68,4.23-24.27,17.74,2.55,46.79,4.51,93.8,10.52,140.28,.23,12.18,12.84,14.91,22.62,12.53-.76,6.08-1.84,12.12-2.88,18.17-23.07-1.36-46.23-1.1-69.2,1.59,.61-5.72,1.25-11.44,1.86-17.15,8.29-1.12,18.94-5.31,18-15.52-2.22-41.99-5.71-83.94-9.22-125.85-3.8,5.33-5.43,11.72-7.66,17.77-16.92,47.01-33.54,94.1-49.7,141.35-4.64,.85-9.29,1.69-13.93,2.55-17.28-51.68-35.09-103.19-53.27-154.55-.9-2.52-2.15-4.9-3.78-7.02-3.8,43.52-7.48,87.11-9.87,130.75,.89,11.64,15.16,7.69,23,8.3-.84,6.07-2.06,12.08-3.21,18.1-20.85-1.04-41.81-2.12-62.53,1.25,.61-5.71,1.23-11.41,1.86-17.12,11.15-.35,18.53-9.93,19.09-20.52,5.15-45.46,10.57-90.96,13.7-136.6,.26-14.04-16.59-14.78-26.8-16.06,.69-5.24,1.59-10.46,2.53-15.67Z"/>
        <path class="cls-1" d="M899.59,623.21c21.26,1.59,42.6,1.81,63.88,.28,15.42,49.19,29.88,98.88,48.62,146.91,17.51-48.45,33.97-97.3,49.95-146.28,20.88,1.63,41.78-.02,62.63-1.2-.54,5.34-1.22,10.69-2.01,16.01-8.48,1.53-20.47,2.19-23.58,11.95-1.56,10.06,.35,20.32,.49,30.45,3.26,39.38,3.63,79.17,9.98,118.18,1.33,11,13.47,11.41,22.02,9.91-.72,6.08-1.81,12.12-2.84,18.17-23.07-1.36-46.22-1.1-69.19,1.59,.61-5.72,1.25-11.44,1.86-17.15,8.27-1.07,18.84-5.34,17.95-15.46-1.71-38.51-5.51-76.9-8.07-115.36-.18-3.55-.71-7.07-2.01-10.36-20.08,52.5-38.01,105.85-56.49,158.94-4.65,.84-9.29,1.68-13.94,2.52-18.3-53.98-36.22-108.14-56.17-161.51-.79,2.3-1.55,4.65-1.71,7.12-2.99,41.19-7,82.31-8.98,123.54,.81,11.71,15.21,7.69,23.04,8.35-.94,6.05-2.1,12.07-3.26,18.09-20.86-1.04-41.83-2.14-62.55,1.27,.62-5.71,1.25-11.41,1.83-17.12,10.74-.46,18.4-9.32,19.01-19.76,5.16-42.9,9.63-85.89,13.42-128.94,.43-6.02,1.58-13.32-3.26-17.95-6.38-5.46-15.34-5.1-23.15-6.53,.71-5.24,1.61-10.47,2.53-15.69Z"/>
        <path class="cls-1" d="M1275.32,623.19c18.73,1.5,37.57,2.2,56.31,.36,28.28,44.79,58.04,88.62,88.11,132.23,3.3,4.83,6.48,9.85,10.74,13.98,.74-37.67-.16-75.39,.08-113.07,.05-5.15-.56-11.87-5.87-14.34-5.44-1.53-11.2-.46-16.75-.62,.31-6.12,1.41-12.17,2.35-18.2,22.84,1.64,45.81,1.59,68.58-.97-.53,5.71-1.05,11.41-1.51,17.13-9.27,1.3-20.21,6.2-20.62,17-2.02,58.85-3.07,117.76-4.72,176.64-6.54,1.36-13.09,2.73-19.63,4.08-29.99-47.12-60.8-93.72-92.55-139.66-5.18-7.07-9.49-14.85-15.73-21.06-1.3,39.36-.95,78.79-1.64,118.17,.18,5.06-.05,12.56,5.9,14.45,6.76,1.28,13.7,.16,20.55,.41-.61,6.1-1.71,12.15-2.75,18.18-23.38-1.56-46.91-1.84-70.17,1.3,.61-5.71,1.25-11.43,1.84-17.13,9.19-1.05,19.06-6.77,19.07-17.13,1.68-46.04,3.22-92.14,4.21-138.19-.21-14.44-17.05-15.62-27.8-17.17,.3-5.51,1.15-10.95,2.01-16.38Z"/>
        <path class="cls-1" d="M1508.57,623.78c23.68,1.04,47.4,1.23,71.1,.26,25.7-1.87,52.89,1.17,75.19,14.98,21.1,12.32,35.96,34.28,40.2,58.27,5.8,32.37-1.63,67.63-22.54,93.37-22.77,28.82-61.48,44.28-97.81,38.39-23.86-3.24-48.09-2.98-71.82,1.05,.61-5.84,1.25-11.69,1.87-17.53,10.98-1.4,23.66-7.42,23.36-20.32,.9-44.62,.33-89.3,.67-133.95-.39-5.43,.49-13.22-5.44-15.97-5.59-1.56-11.44-.36-17.12-.28,.3-6.17,1.36-12.23,2.33-18.28m60.21,20.73c-3.68,.15-5.33,3.91-5.23,7.15-2.04,44.41-3.65,88.85-4.42,133.31-.3,9.09,2.94,20.47,13.22,22.46,19.93,4.18,42.83,3.19,59.52-9.75,19.71-15.36,26.36-41.48,27.1-65.39,.92-24.24-3.68-51.27-22.34-68.43-18.1-16.51-44.15-20.86-67.84-19.35Z"/>
        <path class="cls-1" d="M562.25,992.3c1.79,.08,3.58,.16,5.39,.26,0,7.43-.53,14.9,.39,22.3,12.05-3.19,16.13-23.51,30.57-22.87-7.78,7.96-15.23,16.2-22.84,24.3,8.17,8.7,15.67,18,23.97,26.6-2.58-.1-5.15-.18-7.71-.21-6.97-7.91-13.73-16-20.65-23.94-1.04-1.63-2.89-2.22-3.67-.02-.35,7.97-.13,15.97-.07,23.96-1.81,.07-3.6,.15-5.39,.26,.13-16.89,.13-33.77,0-50.64Z"/>
        <path class="cls-1" d="M895.07,994.34c1.32-.08,3.96-.23,5.29-.3,1,1.81,2.04,3.63,3.09,5.46,2.3-.1,4.62-.2,6.94-.3,.71-1.76,1.45-3.5,2.19-5.24,1.38,.12,4.14,.36,5.52,.48-2.81,11.69-20.52,11.84-23.04-.1Z"/>
        <path class="cls-1" d="M611.92,1011.09c5.8-.71,12.78-1.81,17.68,2.17,8.37,6.2,8.45,20.68,.07,26.92-7.14,5.41-18.71,4.59-24.35-2.61-6.99-8.14-3.83-22.9,6.61-26.47m3.06,4.39c-14.4,4.06-6.71,28.61,7.74,22.64,14.19-4.27,6.58-28.64-7.74-22.64Z"/>
        <path class="cls-1" d="M644.89,1010.57c1.73,.05,3.47,.1,5.21,.18,4.06,5.49,8.3,10.84,12.55,16.18,4.03-5.33,8.01-10.7,11.84-16.18,1.69-.07,3.39-.13,5.11-.18-.1,10.72-.15,21.44,.03,32.18-1.83,.02-3.63,.07-5.44,.13,.15-8.25,.08-16.51,.08-24.75-3.81,5.46-7.84,10.75-11.84,16.08-4.09-5.34-8.29-10.61-12.22-16.05-.02,8.22-.08,16.46,.08,24.7-1.83-.05-3.63-.1-5.44-.12,.16-10.72,.12-21.46,.03-32.18Z"/>
        <path class="cls-1" d="M690.81,1011.91c7.28-1.3,19.34-4.57,22.2,4.98,2.07,8.4,.36,17.25,1,25.81-1.79,.03-3.57,.08-5.33,.15,.12-1,.35-3.01,.48-4.01-6.33,6.46-21.67,5.97-21.13-5.57,.89-10.79,13.45-10.54,21.36-8.63-.74-2.91-1.5-5.8-2.24-8.68-5.06-1.94-10.34-1.12-15.34,.53-.35-1.53-.67-3.06-1-4.57m3.26,25.29c5.13,2.29,10.36,1.28,14.8-1.96,.03-1.5,.08-4.51,.12-6.02-6.82-3.42-17.31-1.59-14.91,7.97Z"/>
        <path class="cls-1" d="M724.01,1010.75c1.78-.1,3.57-.18,5.36-.26-.07,4.54-.1,9.09-.15,13.65,6.36-.05,12.76-.05,19.14,.02-.07-4.54-.08-9.06-.16-13.58,1.81,.03,3.62,.07,5.43,.1-.13,10.69-.15,21.39,.02,32.08-1.83,.02-3.63,.07-5.44,.12,.08-4.62,.1-9.22,.16-13.81-6.38,.03-12.78,.03-19.14,.02,.05,4.62,.08,9.24,.16,13.88-1.81-.12-3.6-.2-5.38-.28,.13-10.64,.12-21.28,0-31.91Z"/>
        <path class="cls-1" d="M769.71,1010.61c7.3,.12,14.6,.12,21.9,0-.18,9.04-.03,18.1-.12,27.18,1.71-.02,3.45-.03,5.2-.02-.02,4.39,0,8.8,.08,13.22-1.1,0-3.29-.02-4.39-.02,.08-2.78,.13-5.56,.23-8.3-9.22,.07-18.43,.08-27.64-.02,.05,2.73,.1,5.48,.16,8.24-1.71-.02-3.42-.02-5.11,0,.03-4.03,.03-8.04-.07-12.04,1.64-.53,3.3-1.05,4.98-1.55,3.54-8.43,4.82-17.61,4.77-26.7m5.2,5c-.56,7.81-2.14,15.49-4.36,22.99,5.24,.02,10.52-.07,15.75-.71-.05-7.42-.05-14.83,.02-22.25-3.81,0-7.61,0-11.41-.03Z"/>
        <path class="cls-1" d="M803.96,1010.48c1.79,.08,3.6,.16,5.41,.25-.08,4.47-.1,8.93-.13,13.42,6.22-.07,12.45-.05,18.68-.03-.05-4.46-.07-8.9-.12-13.33,1.28-.08,3.85-.25,5.13-.33-.1,10.84-.12,21.69,.02,32.52-1.28-.08-3.86-.26-5.15-.35,.05-4.54,.07-9.06,.08-13.58-6.22,.03-12.43,.03-18.65,0,.03,4.54,.05,9.08,.15,13.63-1.83,.07-3.63,.15-5.43,.25,.12-10.8,.12-21.62,0-32.44Z"/>
        <path class="cls-1" d="M844.23,1010.78c1.3-.08,3.88-.23,5.18-.31-.08,3.32-.12,6.66-.18,10,5.43,.39,12.15-1.05,16.26,3.47,4.93,5.28,3.06,15.18-3.85,17.76-5.61,1.79-11.64,.81-17.41,1.05,.08-10.65,.08-21.31,0-31.96m5.03,14.67c.03,4.14,.05,8.3,.03,12.46,4.75-.28,13.83,1.05,13.05-6.33,.44-7.17-8.32-5.98-13.09-6.13Z"/>
        <path class="cls-1" d="M874.84,1010.57c1.79,.03,3.6,.05,5.41,.08-.13,10.7-.15,21.41,.02,32.11-1.83,.02-3.63,.03-5.44,.08,.15-10.75,.13-21.52,.02-32.28Z"/>
        <path class="cls-1" d="M891.24,1010.55c1.79,.03,3.58,.08,5.41,.13-.15,8.35-.1,16.72-.05,25.09,6.18-8.53,12.81-16.7,19.2-25.07,1.86-.05,3.72-.08,5.59-.12-.12,10.72-.13,21.46,.03,32.19-1.83,0-3.65,.02-5.44,.05,.15-8.4,.05-16.8,.08-25.19-6.17,8.5-12.82,16.62-19.12,25.02-1.92,.07-3.83,.15-5.72,.25,.13-10.79,.13-21.57,.02-32.36Z"/>
        <path class="cls-1" d="M948.82,1010.57c1.84,.03,3.68,.07,5.54,.1-.12,.89-.33,2.65-.44,3.53,5.18-4,12.08-4.6,18.27-2.96,11.9,6.03,10.77,26.01-1.48,30.96-5.31,2.71-11.21,.82-16.62-.33,.07,5.18,.07,10.37,.16,15.55-1.83,.02-3.62,.05-5.41,.1,.12-15.65,.12-31.31-.02-46.96m5.41,7.71c-.1,6.22-.08,12.43-.03,18.65,4.75,1,10.14,3.24,14.72,.38,8.35-4.36,8.12-18.91-1.2-21.83-4.72-2.25-9.34,.87-13.48,2.81Z"/>
        <path class="cls-1" d="M989.91,1011.68c7.09-.86,17.84-4.14,21.54,4.27,1.45,9.17,.39,18.63,.51,27.92-1.96-1.15-3.85-2.38-5.62-3.72-4.24,2.96-9.64,3.22-14.55,2.15-5.36-3.03-6.64-11.16-2.1-15.47,4.85-5.06,12.51-2.75,18.63-2.15-.72-2.56-1.43-5.11-2.12-7.65-.86-.67-2.53-2.04-3.37-2.71-4.18,.39-8.29,1.18-12.36,2.09-.13-1.18-.41-3.55-.54-4.74m1.46,21.51c3.58,9.09,17.18,5.92,17.31-3.58-6.13-2.56-13.79-3.3-17.31,3.58Z"/>
        <path class="cls-1" d="M1021.18,1013.36c6.43-3.14,14.35-4.08,21.1-1.63,6.08,3.37,4.26,11.38-1.07,14.45,5.2,1.78,7.09,7.81,4.54,12.45-6.3,7.4-17.51,5.31-25.29,1.55,.62-1.53,1.27-3.06,1.91-4.57,6.56,4.52,21.37,5.44,18.99-6.13-3.91-.35-7.81-.61-11.71-.72-.07-1.43-.12-2.83-.16-4.23,2.73-.12,5.51-.21,8.27-.33,1.27-1.48,2.55-2.96,3.85-4.42-3.88-7.46-12.69-5.46-18.63-1.89-.61-1.53-1.22-3.03-1.79-4.52Z"/>
        <path class="cls-1" d="M1052.04,1010.55c2.24,.05,4.52,.13,6.79,.21,3.72,8.48,7.6,16.9,11.67,25.24,2.99-8.43,6.13-16.8,9.08-25.24,2.12-.08,4.24-.15,6.4-.2-6.49,13.86-10.49,28.89-18.05,42.22-2.1,4.82-7.51,4.67-11.94,4.39-.23-1.64-.44-3.29-.64-4.92,6.25,1.66,11.62-2.86,12.25-9.11-4.57-11.15-10.33-21.77-15.55-32.6Z"/>
        <path class="cls-1" d="M1092.31,1010.63c1.69,0,3.42,.02,5.15,.05,4.18,5.44,8.45,10.82,12.48,16.39,4.11-5.36,8.14-10.75,12-16.29,1.68-.1,3.35-.2,5.06-.3-.08,10.79-.13,21.56,.03,32.34-1.83-.03-3.63-.05-5.44-.05,.16-8.07,.12-16.15,.05-24.22-3.96,5.23-7.89,10.47-11.79,15.75-4.04-5.46-8.27-10.77-12.28-16.23,.05,8.29-.03,16.57,.1,24.86-1.81-.12-3.62-.2-5.39-.26,.15-10.69,.12-21.37,.03-32.05Z"/>
      </g>
    </g>
  </g>
</svg>