<svg xmlns="http://www.w3.org/2000/svg" xmlns:xlink="http://www.w3.org/1999/xlink" viewBox="0,0,256,256" width="64px" height="64px" fill-rule="nonzero"><g fill="#ebebeb" fill-rule="nonzero" stroke="none" stroke-width="1" stroke-linecap="butt" stroke-linejoin="miter" stroke-miterlimit="10" stroke-dasharray="" stroke-dashoffset="0" font-family="none" font-weight="none" font-size="none" text-anchor="none" style="mix-blend-mode: normal"><g transform="scale(16,16)"><path d="M7.5,1c-1.92187,0 -3.5,1.57813 -3.5,3.5c0,1.92188 1.57813,3.5 3.5,3.5c1.92188,0 3.5,-1.57812 3.5,-3.5c0,-1.92187 -1.57812,-3.5 -3.5,-3.5zM7.5,3c0.83984,0 1.5,0.66016 1.5,1.5c0,0.83984 -0.66016,1.5 -1.5,1.5c-0.83984,0 -1.5,-0.66016 -1.5,-1.5c0,-0.83984 0.66016,-1.5 1.5,-1.5zM4.97656,8.37891c-0.46094,0.00391 -0.85937,0.32422 -0.96484,0.77734c-0.10156,0.44922 0.11719,0.91016 0.52734,1.11719c0.33984,0.17578 0.70313,0.3125 1.07813,0.42969l-1.38281,1.65625c-0.24219,0.27344 -0.3125,0.65625 -0.19141,0.99609c0.12109,0.34375 0.41797,0.58984 0.77734,0.65234c0.35938,0.05859 0.72266,-0.08203 0.94531,-0.36719l1.73438,-2.07812l1.73438,2.07813c0.22266,0.28516 0.58594,0.42578 0.94531,0.36719c0.35938,-0.0625 0.65625,-0.30859 0.77734,-0.65234c0.12109,-0.33984 0.05078,-0.72266 -0.19141,-0.99609l-1.38281,-1.65625c0.375,-0.11719 0.73828,-0.25391 1.07422,-0.42969c0.49219,-0.25391 0.68359,-0.85547 0.42969,-1.34766c-0.25,-0.49219 -0.85547,-0.68359 -1.34766,-0.42969c-0.62109,0.32031 -1.30469,0.50391 -2.03906,0.50391c-0.73437,0 -1.41797,-0.18359 -2.03906,-0.50391c-0.14844,-0.07812 -0.31641,-0.12109 -0.48437,-0.11719z"></path></g></g></svg>