<svg xmlns="http://www.w3.org/2000/svg" xmlns:xlink="http://www.w3.org/1999/xlink" viewBox="0,0,256,256" width="64px" height="64px" fill-rule="nonzero"><g fill="#ebebeb" fill-rule="nonzero" stroke="none" stroke-width="1" stroke-linecap="butt" stroke-linejoin="miter" stroke-miterlimit="10" stroke-dasharray="" stroke-dashoffset="0" font-family="none" font-weight="none" font-size="none" text-anchor="none" style="mix-blend-mode: normal"><g transform="scale(16,16)"><path d="M3.5,2c-0.82253,0 -1.5,0.67747 -1.5,1.5v9c0,0.82253 0.67747,1.5 1.5,1.5h9c0.82253,0 1.5,-0.67747 1.5,-1.5v-9c0,-0.82253 -0.67747,-1.5 -1.5,-1.5zM3.5,3h9c0.28147,0 0.5,0.21853 0.5,0.5v9c0,0.28147 -0.21853,0.5 -0.5,0.5h-9c-0.28147,0 -0.5,-0.21853 -0.5,-0.5v-9c0,-0.28147 0.21853,-0.5 0.5,-0.5zM8,4v5.5c0,0.83 -0.67,1.5 -1.5,1.5c-0.83,0 -1.5,-0.67 -1.5,-1.5c0,-0.83 0.67,-1.5 1.5,-1.5c0.18,0 0.34,0.02984 0.5,0.08984v-1.03906c-0.16,-0.03 -0.33,-0.05078 -0.5,-0.05078c-1.38,0 -2.5,1.12 -2.5,2.5c0,1.38 1.12,2.5 2.5,2.5c1.38,0 2.5,-1.12 2.5,-2.5v-3.28906c0.16532,0.13874 0.29034,0.34522 0.48047,0.43164c0.83299,0.37863 1.76953,0.35742 2.51953,0.35742v-1c-0.75,0 -1.56346,-0.02121 -2.10547,-0.26758c-0.54201,-0.24637 -0.89453,-0.61576 -0.89453,-1.73242z"></path></g></g></svg>