<svg xmlns="http://www.w3.org/2000/svg" xmlns:xlink="http://www.w3.org/1999/xlink" viewBox="0,0,256,256" width="64px" height="64px" fill-rule="nonzero"><g fill="#ebebeb" fill-rule="nonzero" stroke="none" stroke-width="1" stroke-linecap="butt" stroke-linejoin="miter" stroke-miterlimit="10" stroke-dasharray="" stroke-dashoffset="0" font-family="none" font-weight="none" font-size="none" text-anchor="none" style="mix-blend-mode: normal"><g transform="scale(16,16)"><path d="M15,3.29688c-0.52344,0.22656 -1.05078,0.39453 -1.63281,0.44922c0.58203,-0.33594 1.05078,-0.90234 1.28125,-1.51953c-0.58203,0.33594 -1.16406,0.5625 -1.80469,0.67578c-0.58594,-0.5625 -1.34375,-0.90234 -2.16016,-0.90234c-1.57422,0 -2.85937,1.24219 -2.85937,2.76563c0,0.22266 0,0.44922 0.05859,0.62109c-3.00781,0 -5.07031,-1.69531 -6.46875,-3.38672c-0.29297,0.39453 -0.41016,0.90234 -0.41016,1.41016c0,0.95703 0.52734,1.80469 1.28516,2.3125c-0.46875,-0.05469 -0.93359,-0.16797 -1.28516,-0.33594c0,0 0,0 0,0.05469c0,1.35547 0.99219,2.48047 2.27734,2.70703c-0.23437,0.05469 -0.46875,0.11328 -0.76172,0.11328c-0.17187,0 -0.34766,0 -0.52344,-0.05469c0.35156,1.12891 1.98047,2.42578 3.26172,2.42578c-0.99219,0.73047 -1.91406,1.36719 -3.75781,1.36719c-0.23437,0 -0.04687,0 -0.5,0c1.28125,0.78906 2.80078,1 4.375,1c5.30859,0 8.16797,-4.23047 8.16797,-7.89844c0,-0.11328 0,-0.22266 0,-0.33594c0.58203,-0.39844 1.05078,-0.90234 1.45703,-1.46875"></path></g></g></svg>