<svg xmlns="http://www.w3.org/2000/svg" xmlns:xlink="http://www.w3.org/1999/xlink" viewBox="0,0,256,256" width="64px" height="64px" fill-rule="nonzero"><g fill="#ebebeb" fill-rule="nonzero" stroke="none" stroke-width="1" stroke-linecap="butt" stroke-linejoin="miter" stroke-miterlimit="10" stroke-dasharray="" stroke-dashoffset="0" font-family="none" font-weight="none" font-size="none" text-anchor="none" style="mix-blend-mode: normal"><g transform="scale(16,16)"><path d="M7.69531,3.01953c-0.82812,-0.00781 -1.45312,0.03125 -1.97656,0.30078c-0.21484,0.10938 -0.36719,0.25 -0.48437,0.41406c-0.0625,0.08203 -0.12109,0.15625 -0.14844,0.32813c-0.01562,0.08203 -0.02734,0.21875 0.05859,0.36719c0.08594,0.15234 0.26953,0.25391 0.39453,0.27344c0.09375,0.01172 0.29297,0.09375 0.32813,0.14063c0.08203,0.11719 0.11328,0.20313 0.125,0.25c0.01172,0.04688 0.00781,0.01563 0.00781,0.01563v0.04688c0,0 0.03125,0.49219 0.01172,1c-0.01172,0.25 -0.03516,0.51172 -0.07422,0.6875c-0.03906,0.17578 -0.13672,0.21875 0.00391,0.13672c-0.09766,0.05859 -0.0625,0.08203 -0.18359,0.01953c-0.125,-0.05859 -0.44922,-0.33203 -0.875,-1.09766c-0.42578,-0.76953 -0.73437,-1.16797 -0.80469,-1.25391c-0.02734,-0.07812 -0.09375,-0.23828 -0.32031,-0.41406c-0.29297,-0.22656 -0.59375,-0.23047 -0.59375,-0.23047l-0.02734,-0.00391h-2.18359c0,0 -0.125,0.00391 -0.26953,0.03516c-0.14453,0.03125 -0.35156,0.06641 -0.54687,0.30859h-0.00391c-0.19922,0.25391 -0.16406,0.48438 -0.14844,0.625c0.01953,0.14453 0.0625,0.25781 0.0625,0.25781l0.00781,0.02344l0.01172,0.02344c0,0 1.66797,3.55859 3.66016,5.72656c1.87109,2.03906 4.03906,2 4.03906,2h1.23047l0.02734,-0.00391c0,0 0.39453,0.01953 0.72656,-0.35156c0.16797,-0.19141 0.20703,-0.37109 0.22656,-0.50391c0.02344,-0.13672 0.02344,-0.24609 0.02344,-0.24609v0.03125c0,0 0.01563,-0.25781 0.08594,-0.52734c0.03516,-0.13281 0.08594,-0.26562 0.13281,-0.33984c0.02344,-0.04297 0.02344,-0.03125 0.03125,-0.04297c0.08594,0.0625 0.22656,0.20703 0.375,0.39063c0.30469,0.36328 0.64844,0.86719 1.12891,1.21484c0.34766,0.24609 0.67578,0.35547 0.92578,0.39453c0.16797,0.02734 0.28906,0.02344 0.37109,0.01563l1.69922,-0.03125h0.01563c0,0 0.35156,-0.00781 0.70313,-0.23047c0.17188,-0.10937 0.37109,-0.30859 0.4375,-0.59375c0.07031,-0.28516 -0.00781,-0.59375 -0.17187,-0.87891c0.05469,0.09766 -0.01172,-0.03125 -0.0625,-0.13281c-0.05078,-0.10156 -0.12891,-0.23828 -0.24609,-0.41016c-0.22656,-0.33594 -0.60156,-0.80859 -1.22266,-1.41016c-0.29297,-0.28125 -0.48047,-0.4375 -0.59766,-0.54687c0.03516,-0.05078 0.03906,-0.05469 0.17188,-0.21094c0.21094,-0.24609 0.51953,-0.60938 0.91016,-1.15234c0.46875,-0.65625 0.80859,-1.19141 1.02734,-1.63672c0.21875,-0.44141 0.39453,-0.80859 0.19922,-1.26172c-0.10547,-0.24609 -0.29297,-0.33984 -0.42969,-0.39844c-0.14062,-0.05859 -0.26562,-0.08203 -0.38281,-0.10156c-0.23047,-0.03516 -0.43359,-0.03516 -0.43359,-0.03516l-1.98047,0.01563c-0.05859,-0.01172 -0.28516,-0.05469 -0.57812,0.13281c-0.28906,0.17969 -0.35547,0.37109 -0.37109,0.42969c-0.04687,0.06641 -0.375,0.53125 -0.83203,1.34375c-0.46094,0.82031 -0.77344,1.04297 -0.8125,1.0625c-0.01172,-0.01172 0.01172,-0.00781 -0.04297,-0.03906c-0.02344,-0.01953 -0.04687,-0.03516 -0.06641,-0.24609c-0.01562,-0.21094 0.00391,-0.54297 0.00391,-0.93359c0,-0.83984 0.07422,-1.27734 0.03125,-1.69531c-0.01953,-0.21094 -0.10547,-0.46875 -0.29297,-0.64062c-0.1875,-0.16797 -0.39062,-0.23047 -0.60156,-0.28516c-0.33203,-0.08203 -0.78125,-0.11719 -1.42969,-0.125zM7.6875,4.01953c0.60547,0.00781 1.03125,0.05469 1.1875,0.09375c0.13281,0.03516 0.15234,0.05078 0.14844,0.04297c0,0.00781 0,0.00391 0,0.01563c0.01563,0.16797 -0.03516,0.70703 -0.03516,1.59375c0,0.34766 -0.02734,0.68359 0,1.01953c0.02734,0.33594 0.14844,0.74609 0.50391,0.98828h0.00391c-0.04297,-0.02734 0.44922,0.33984 0.91797,0.17188c0.46875,-0.17187 0.83984,-0.60156 1.36719,-1.53516c0.46094,-0.82812 0.80078,-1.29297 0.80078,-1.29297l0.03125,-0.04687l0.02344,-0.04687c0,0 -0.00781,-0.00391 0,-0.00781l2.03125,-0.01562c0,0 0.14063,0 0.27734,0.02344c0.00391,0 0.00781,0 0.01172,0c-0.01953,0.00781 -0.00391,0.05859 -0.14062,0.33594c-0.17578,0.35547 -0.49219,0.86328 -0.94141,1.49219c-0.37109,0.51172 -0.64844,0.84375 -0.85547,1.08594c-0.20703,0.23828 -0.36328,0.35156 -0.46484,0.66406c-0.05078,0.15234 -0.03906,0.37891 0.03516,0.53125c0.07031,0.14844 0.15625,0.23047 0.24219,0.3125c0.17188,0.16406 0.375,0.32422 0.67188,0.61719c0.58203,0.5625 0.91016,0.97656 1.09375,1.25c0.09375,0.14063 0.14844,0.23828 0.18359,0.30859c0.03516,0.07031 0.01172,0.04297 0.08984,0.17578c0.06641,0.12109 0.05469,0.13672 0.05469,0.12891c-0.06641,0.03906 -0.23437,0.07422 -0.23828,0.07422l-1.69922,0.03125l-0.04687,0.01172c0,0 0.00391,0.00391 -0.10156,-0.01172c-0.10937,-0.01953 -0.28125,-0.06641 -0.5,-0.22266c-0.26953,-0.19141 -0.60937,-0.63672 -0.94531,-1.04297c-0.16406,-0.19922 -0.33203,-0.39453 -0.54297,-0.55078c-0.21094,-0.15625 -0.54297,-0.30078 -0.88281,-0.1875c-0.29297,0.09375 -0.48437,0.30859 -0.60547,0.50781c-0.12109,0.20313 -0.19141,0.41406 -0.24609,0.60547c-0.10156,0.38672 -0.11719,0.73438 -0.11719,0.73438v0.03125c0,0 0,0.02344 -0.00781,0.05859c-0.01953,0.00781 -0.04687,0.02734 -0.0625,0.03516h-1.19531c0,0 -1.65234,0.08594 -3.27344,-1.67187c-1.73437,-1.89453 -3.27734,-5.0625 -3.40625,-5.32812h2.01172c0.01953,0.00781 0.08984,0.03516 0.08203,0.03125c-0.04687,-0.03906 0.02344,0.04688 0.02344,0.04688l0.03125,0.07422l0.05469,0.0625c0,0 0.30859,0.375 0.75,1.17188c0.47266,0.85547 0.87109,1.30078 1.31641,1.51563c0.44531,0.21484 0.91406,0.0625 1.11328,-0.05078c0.37109,-0.21484 0.41406,-0.51562 0.47656,-0.79297c0.0625,-0.27734 0.08203,-0.57422 0.09375,-0.86328c0.02344,-0.55469 -0.00781,-1.02734 -0.00781,-1.0625c-0.00391,-0.01172 -0.00391,-0.14844 -0.04297,-0.29687c-0.04297,-0.15234 -0.12109,-0.35156 -0.26953,-0.5625c-0.0625,-0.08594 -0.12109,-0.04297 -0.1875,-0.10547c0.27734,-0.07812 0.57422,-0.15625 1.1875,-0.14844z"></path></g></g></svg>