<svg xmlns="http://www.w3.org/2000/svg" xmlns:xlink="http://www.w3.org/1999/xlink" viewBox="0,0,256,256" width="64px" height="64px" fill-rule="nonzero"><g fill="#ebebeb" fill-rule="nonzero" stroke="none" stroke-width="1" stroke-linecap="butt" stroke-linejoin="miter" stroke-miterlimit="10" stroke-dasharray="" stroke-dashoffset="0" font-family="none" font-weight="none" font-size="none" text-anchor="none" style="mix-blend-mode: normal"><g transform="scale(16,16)"><path d="M7.5,1c-3.58594,0 -6.5,2.91406 -6.5,6.5c0,1.29688 0.41797,2.48438 1.07031,3.5l-1.11719,3.12109l3.47656,-0.98047c0.92188,0.50391 1.94531,0.85938 3.07031,0.85938c3.58594,0 6.5,-2.91406 6.5,-6.5c0,-3.58594 -2.91406,-6.5 -6.5,-6.5zM7.5,2c3.04297,0 5.5,2.45703 5.5,5.5c0,3.04297 -2.45703,5.5 -5.5,5.5c-1.04297,0 -2.00781,-0.29297 -2.84375,-0.79687l-0.18359,-0.11328l-1.92578,0.53906l0.625,-1.73437l-0.15234,-0.21094c-0.64062,-0.90234 -1.01953,-1.99609 -1.01953,-3.18359c0,-3.04297 2.45703,-5.5 5.5,-5.5zM5.0625,4c-0.11328,0 -0.30078,0.04688 -0.46094,0.23438c-0.15625,0.18359 -0.60156,0.63281 -0.60156,1.54688c0,0.91016 0.61719,1.79297 0.70313,1.91797c0.08594,0.125 1.21484,1.99609 2.94141,2.80078c0.41016,0.19141 0.73047,0.30469 0.98047,0.39063c0.41406,0.14063 0.78906,0.12109 1.08594,0.07422c0.33203,-0.05469 1.01953,-0.44922 1.16406,-0.88281c0.14063,-0.43359 0.14453,-0.80469 0.09766,-0.88281c-0.03906,-0.07812 -0.15625,-0.125 -0.32812,-0.21484c-0.17187,-0.09375 -1.01953,-0.54297 -1.17578,-0.60156c-0.15625,-0.06641 -0.27344,-0.09375 -0.39062,0.08984c-0.11328,0.1875 -0.44141,0.60547 -0.54297,0.72656c-0.10156,0.125 -0.19922,0.14063 -0.37109,0.04688c-0.17578,-0.09375 -0.73047,-0.28906 -1.38672,-0.92187c-0.51172,-0.49219 -0.85937,-1.09766 -0.95703,-1.28516c-0.10156,-0.1875 -0.01172,-0.28516 0.07422,-0.375c0.07813,-0.08594 0.17188,-0.21875 0.25781,-0.32812c0.08594,-0.10547 0.11328,-0.1875 0.17188,-0.30859c0.05859,-0.125 0.03125,-0.23437 -0.01172,-0.32422c-0.04687,-0.09375 -0.39062,-1.00781 -0.53125,-1.37891c-0.14062,-0.35938 -0.28516,-0.3125 -0.39062,-0.31641c-0.09766,-0.00781 -0.21484,-0.00781 -0.32812,-0.00781z"></path></g></g></svg>