<svg xmlns="http://www.w3.org/2000/svg" xmlns:xlink="http://www.w3.org/1999/xlink" viewBox="0,0,256,256" width="64px" height="64px" fill-rule="nonzero"><g fill="#ebebeb" fill-rule="nonzero" stroke="none" stroke-width="1" stroke-linecap="butt" stroke-linejoin="miter" stroke-miterlimit="10" stroke-dasharray="" stroke-dashoffset="0" font-family="none" font-weight="none" font-size="none" text-anchor="none" style="mix-blend-mode: normal"><g transform="scale(16,16)"><path d="M2.48828,3.01172c-0.82422,0 -1.5,0.67578 -1.5,1.5v7c0,0.82422 0.67578,1.5 1.5,1.5h11c0.82031,0 1.5,-0.67578 1.5,-1.5v-7c0,-0.82422 -0.67578,-1.5 -1.5,-1.5zM2.48828,4.01172h11c0.28125,0 0.5,0.21875 0.5,0.5v7c0,0.28125 -0.21875,0.5 -0.5,0.5h-11c-0.28125,0 -0.5,-0.21875 -0.5,-0.5v-7c0,-0.28125 0.21875,-0.5 0.5,-0.5zM6,4.99219v6.01953l5,-3.01172zM7,6.75781l2.0625,1.24219l-2.0625,1.24219z"></path></g></g></svg>